<?xml version="1.0" encoding="utf-8"?>
<!-- Generator: Adobe Illustrator 25.3.1, SVG Export Plug-In . SVG Version: 6.00 Build 0)  -->
<svg version="1.1" id="Layer_1" xmlns="http://www.w3.org/2000/svg" xmlns:xlink="http://www.w3.org/1999/xlink" x="0px" y="0px"
	 viewBox="0 0 45 46" enable-background="new 0 0 45 46" xml:space="preserve">
<g>
	<g>
		<defs>
			<rect id="SVGID_1_" y="0.5" width="44.9" height="44.9"/>
		</defs>
		<clipPath id="SVGID_2_">
			<use xlink:href="#SVGID_1_"  overflow="visible"/>
		</clipPath>
		<g clip-path="url(#SVGID_2_)">
			
				<linearGradient id="SVGID_3_" gradientUnits="userSpaceOnUse" x1="16.307" y1="597.585" x2="14.0059" y2="571.7338" gradientTransform="matrix(1 0 0 1 0 -548)">
				<stop  offset="0" style="stop-color:#FFE600"/>
				<stop  offset="1" style="stop-color:#FFD300"/>
			</linearGradient>
			<path fill="url(#SVGID_3_)" d="M9.9,44.1l14-6.9c0.7-0.3,0.9-1.1,0.6-1.8c-0.1-0.2-0.2-0.4-0.4-0.5l-13.8-10
				c-0.6-0.4-1.4-0.3-1.9,0.3c-0.1,0.2-0.2,0.4-0.2,0.6L6.1,41.3c-0.2,1.5,0.8,2.8,2.3,3C8.9,44.5,9.4,44.4,9.9,44.1z"/>
			<path fill-rule="evenodd" clip-rule="evenodd" fill="#CA94FF" d="M26.4,12.6c0.5-0.5,1.2-0.6,1.8-0.1c0.5,0.5,1.2,1.2,1.6,2.1
				c0.4,0.8,0.8,2.2-0.2,3.4c-0.6,0.7-1.4,1-2.1,0.9c-0.6,0-1.2-0.2-1.6-0.3h-0.1c-1.1-0.3-1.3-0.3-1.5-0.1
				c-0.1,0.1-0.2,0.2-0.2,0.3c0,0,0,0.1,0,0.2c0.1,0.3,0.3,0.6,0.7,1.2c0,0.1,0.1,0.1,0.2,0.2c0.3,0.5,0.7,1,1,1.6
				c0.3,0.7,0.5,1.7-0.1,2.7c-0.5,0.8-1.2,1.2-2,1.3c-0.7,0.1-1.4-0.1-1.9-0.2c-0.2-0.1-0.4-0.1-0.5-0.1c-0.3-0.1-0.5-0.1-0.7-0.2
				c-0.1,0-0.2,0-0.2,0c0,0.1-0.1,0.1-0.1,0.2s0,0.2,0.1,0.4c0.2,0.4,0.6,0.8,0.9,1c0.6,0.4,0.8,1.1,0.4,1.7s-1.1,0.8-1.7,0.4
				c-0.7-0.4-1.5-1.2-1.9-2.2c-0.2-0.5-0.3-1.1-0.2-1.7c0.1-0.6,0.4-1.3,0.9-1.8l0.1-0.1l0.1-0.1c0.7-0.5,1.5-0.5,2.1-0.4
				c0.4,0.1,0.8,0.2,1.2,0.3c0.1,0,0.2,0.1,0.3,0.1c0.4,0.1,0.7,0.2,0.8,0.1l0,0c0.1,0,0.1,0,0.2-0.2l0,0c0,0,0.1-0.1-0.1-0.4
				c-0.1-0.3-0.4-0.7-0.7-1.1c-0.1-0.1-0.1-0.2-0.2-0.3c-0.4-0.5-0.9-1.3-1.1-2.1c-0.1-0.4-0.1-0.9,0-1.4s0.4-1,0.8-1.4
				c1.4-1.4,3-0.8,3.9-0.6h0.1c0.5,0.2,0.8,0.2,1,0.2c0.1,0,0.1,0,0.1,0l0,0l0,0c0,0,0,0,0-0.1s0-0.3-0.2-0.6c-0.2-0.5-0.7-1-1-1.3
				C26,13.9,26,13.1,26.4,12.6z M20.5,25.5L20.5,25.5L20.5,25.5z"/>
			<path fill="none" stroke="#14D4F4" stroke-width="2.5057" stroke-linecap="round" d="M39.6,31.8C36,27,29.2,27.4,26.1,32.5"/>
			<path fill="none" stroke="#FF82BD" stroke-width="2.5057" stroke-linecap="round" d="M9.8,11.7c5.2,1.2,6.8,7.4,4.4,12.1"/>
			<path fill="#FF82BD" d="M33.7,18.8l-2.3,1.5c-0.4,0.3-0.5,0.8-0.3,1.2l1.5,2.3c0.3,0.4,0.8,0.5,1.2,0.3l2.3-1.5
				c0.4-0.3,0.5-0.8,0.3-1.2l-1.5-2.3C34.6,18.7,34.1,18.5,33.7,18.8z"/>
			<path fill="#CA94FF" d="M41.1,23.8l-1.3-0.2c-0.5-0.1-0.9,0.3-1,0.8l-0.2,1.3c-0.1,0.5,0.3,0.9,0.8,1l1.3,0.2
				c0.5,0.1,0.9-0.3,1-0.8l0.2-1.3C42,24.3,41.6,23.8,41.1,23.8z"/>
			<path fill="#CA94FF" d="M8.6,16.8l-1.7-0.5c-0.5-0.1-1,0.1-1.1,0.6l-0.5,1.7c-0.1,0.5,0.1,1,0.6,1.1l1.7,0.5
				c0.5,0.1,1-0.1,1.1-0.6l0.5-1.7C9.4,17.5,9.1,17,8.6,16.8z"/>
			<path fill="#FFC300" d="M33.3,35.6L32,35.2c-0.5-0.1-1,0.1-1.1,0.6l-0.4,1.3c-0.1,0.5,0.1,1,0.6,1.1l1.3,0.4
				c0.5,0.1,1-0.1,1.1-0.6l0.4-1.3C34,36.3,33.8,35.8,33.3,35.6z"/>
			<path fill="#FFC300" d="M37.5,12.5l-1.2-0.6c-0.4-0.2-1,0-1.2,0.4l-0.6,1.2c-0.2,0.4,0,1,0.4,1.2l1.2,0.6c0.4,0.2,1,0,1.2-0.4
				l0.6-1.2C38.2,13.2,38,12.7,37.5,12.5z"/>
			<path fill="#14D4F4" d="M21.1,12.3l-1-0.9c-0.4-0.3-0.9-0.3-1.3,0.1l-0.9,1c-0.3,0.4-0.3,0.9,0.1,1.3l1,0.9
				c0.4,0.3,0.9,0.3,1.3-0.1l0.9-1C21.6,13.2,21.5,12.7,21.1,12.3z"/>
		</g>
	</g>
</g>
</svg>
